<svg id="Layer_1" data-name="Layer 1" xmlns="http://www.w3.org/2000/svg" viewBox="0 0 595.28 841.89"><defs><style>.cls-1,.cls-18{fill:none;stroke:#75b846;stroke-miterlimit:10;}.cls-1{stroke-width:7px;}.cls-2,.cls-3{fill:#76b946;}.cls-11,.cls-3{fill-rule:evenodd;}.cls-4{font-size:18.49px;}.cls-19,.cls-4{fill:#1d1d1b;}.cls-12,.cls-14,.cls-19,.cls-4{font-family:Nunito-Bold, Nunito;font-weight:700;}.cls-5{letter-spacing:-0.01em;}.cls-6{letter-spacing:0em;}.cls-7{letter-spacing:-0.01em;}.cls-8{letter-spacing:-0.01em;}.cls-9{letter-spacing:0.04em;}.cls-10,.cls-11,.cls-12,.cls-14{fill:#fff;}.cls-12{font-size:99.45px;}.cls-13{letter-spacing:-0.01em;}.cls-14{font-size:22.05px;}.cls-15{letter-spacing:0em;}.cls-16{letter-spacing:0em;}.cls-17{fill:#f5f9ee;}.cls-18{stroke-linecap:round;stroke-width:4px;}.cls-19{font-size:14.87px;}.cls-20{letter-spacing:-0.01em;}.cls-21{letter-spacing:0em;}.cls-22{letter-spacing:0em;}.cls-23{letter-spacing:-0.01em;}.cls-24{letter-spacing:-0.01em;}.cls-25{letter-spacing:0em;}.cls-26{letter-spacing:-0.02em;}</style></defs><rect class="cls-1" x="127.64" y="356.96" width="340" height="340" rx="8.02"/><g id="noun_covid_3867300" data-name="noun covid 3867300"><g id="Path_1" data-name="Path 1"><path class="cls-2" d="M322.05,102.94h-4.81a19.83,19.83,0,0,0-3.56-8.58l6-6a3,3,0,1,0-4.29-4.29h0l-6,6a19.5,19.5,0,0,0-8.58-3.56V81.7a3,3,0,0,0-6.07,0v4.81a19.59,19.59,0,0,0-8.58,3.56l-7.48-7.48a3,3,0,1,0-4.29,4.29l7.48,7.48a19.59,19.59,0,0,0-3.56,8.58h-4.81a3,3,0,1,0,0,6.07h4.81a19.5,19.5,0,0,0,3.56,8.58l-6,6a3,3,0,1,0,4.29,4.29l6-6a19.78,19.78,0,0,0,8.58,3.56v4.81a3,3,0,0,0,6.07,0h0v-4.81a19.73,19.73,0,0,0,8.58-3.56l7.49,7.48a3,3,0,0,0,4.29-4.29l-7.48-7.49a19.73,19.73,0,0,0,3.56-8.58h4.81a3,3,0,0,0,0-6.07Zm-24.28,16.69A13.66,13.66,0,1,1,311.42,106h0A13.65,13.65,0,0,1,297.77,119.63Z"/><path class="cls-2" d="M297.77,134h0a3.76,3.76,0,0,1-3.76-3.75v-4.21a20.44,20.44,0,0,1-7.78-3.23l-5.53,5.54a3.76,3.76,0,0,1-6.41-2.66,3.72,3.72,0,0,1,1.1-2.65l5.53-5.54a20.44,20.44,0,0,1-3.23-7.78h-4.2a3.75,3.75,0,1,1,0-7.5h4.21a20.4,20.4,0,0,1,3.22-7.79l-7.05-7a3.75,3.75,0,0,1,0-5.31,3.77,3.77,0,0,1,5.31,0l7.05,7A20.42,20.42,0,0,1,294,85.9V81.7A3.75,3.75,0,0,1,297.77,78h0a3.75,3.75,0,0,1,3.75,3.75v4.2a20.44,20.44,0,0,1,7.78,3.23l5.54-5.53a3.75,3.75,0,0,1,5.31,5.31l-5.54,5.53a20.42,20.42,0,0,1,3.23,7.79h4.21a3.75,3.75,0,0,1,0,7.5h-4.21a20.44,20.44,0,0,1-3.23,7.78l7.06,7.06a3.75,3.75,0,0,1,1.09,2.65A3.76,3.76,0,0,1,319,131h0a3.72,3.72,0,0,1-2.65-1.1l-7.06-7.05a20.44,20.44,0,0,1-7.78,3.23v4.21a3.76,3.76,0,0,1-3.75,3.75Zm-11.69-13.07.5.37a19,19,0,0,0,8.26,3.43l.61.09v5.43a2.28,2.28,0,0,0,.68,1.63,2.3,2.3,0,0,0,1.64.68h0a2.3,2.3,0,0,0,2.31-2.31v-5.43l.61-.09a19.07,19.07,0,0,0,8.27-3.43l.5-.37,7.91,7.92a2.32,2.32,0,1,0,3.28-3.28l-7.92-7.91.37-.5a19.07,19.07,0,0,0,3.43-8.27l.09-.61h5.43a2.32,2.32,0,0,0,0-4.63h-5.43l-.09-.61a19.08,19.08,0,0,0-3.43-8.26l-.37-.5,6.4-6.4a2.3,2.3,0,0,0,.68-1.64,2.28,2.28,0,0,0-.68-1.63,2.31,2.31,0,0,0-3.28,0L309.46,91l-.5-.36a19,19,0,0,0-8.27-3.43l-.61-.09V81.7a2.31,2.31,0,0,0-2.31-2.31h0a2.31,2.31,0,0,0-2.32,2.31v5.43l-.61.09a19,19,0,0,0-8.26,3.43l-.5.36-7.92-7.91a2.3,2.3,0,0,0-3.27,0,2.28,2.28,0,0,0-.68,1.63,2.3,2.3,0,0,0,.68,1.64l7.91,7.92-.36.5a19,19,0,0,0-3.43,8.26l-.09.61h-5.43a2.32,2.32,0,0,0-1.64,4,2.33,2.33,0,0,0,1.64.67h5.43l.09.61a19,19,0,0,0,3.43,8.27l.36.5-6.39,6.39a2.32,2.32,0,0,0,3.27,3.28Zm11.69-.59A14.38,14.38,0,1,1,312.14,106,14.39,14.39,0,0,1,297.77,120.35Zm0-27.31A12.94,12.94,0,1,0,310.71,106,12.95,12.95,0,0,0,297.77,93Z"/></g><g id="Path_2" data-name="Path 2"><path class="cls-2" d="M297.77,102.94a3,3,0,0,0,0-6.07h0a9.12,9.12,0,0,0-9.11,9.11,3,3,0,0,0,6.07,0h0A3,3,0,0,1,297.77,102.94Z"/></g><g id="Path_3" data-name="Path 3"><path class="cls-2" d="M303.84,102.94a3,3,0,0,0-3,3h0a3,3,0,0,1-3,3,3,3,0,1,0,0,6.07h0a9.11,9.11,0,0,0,9.1-9.1A3,3,0,0,0,303.84,102.94Z"/></g></g><g id="noun_Scanner_3885540" data-name="noun Scanner 3885540"><g id="Path_4" data-name="Path 4"><path class="cls-3" d="M261.73,82.55a12.6,12.6,0,0,1,12.61-12.61h7.21a1.8,1.8,0,0,1,0,3.6h-7.21a9,9,0,0,0-9,9h0v7.21a1.8,1.8,0,0,1-3.6,0Z"/><path class="cls-2" d="M263.53,94.85h-.18a5.17,5.17,0,0,1-5-5V82.55a16,16,0,0,1,16-16h7.32a5,5,0,0,1,3.59,1.63,5.15,5.15,0,0,1-3.59,8.67h-7.32a5.67,5.67,0,0,0-5.66,5.66v7.32a5.17,5.17,0,0,1-5.15,5Z"/></g><g id="Path_6" data-name="Path 6"><path class="cls-3" d="M261.73,129.41A12.61,12.61,0,0,0,274.34,142h7.21a1.8,1.8,0,0,0,.12-3.6h-7.33a9,9,0,0,1-9-9h0V122.2a1.8,1.8,0,1,0-3.6-.13.29.29,0,0,0,0,.13Z"/><path class="cls-2" d="M281.61,145.37h-7.27a16,16,0,0,1-16-16v-7.17a2.62,2.62,0,0,1,0-.28,5.06,5.06,0,0,1,1.63-3.59,5.15,5.15,0,0,1,8.67,3.87v7.17a5.67,5.67,0,0,0,5.66,5.66h7.45a5.15,5.15,0,0,1-.18,10.3Z"/></g><g id="Path_4-2" data-name="Path 4"><path class="cls-3" d="M333.81,129.41A12.62,12.62,0,0,1,321.19,142H314a1.8,1.8,0,0,1,0-3.6h7.2a9,9,0,0,0,9-9h0V122.2a1.8,1.8,0,0,1,3.6,0Z"/><path class="cls-2" d="M332,117.11h.19a5.17,5.17,0,0,1,5,5v7.33a16,16,0,0,1-16,16h-7.32a5.15,5.15,0,0,1,0-10.3h7.33a5.67,5.67,0,0,0,5.66-5.66v-7.33a5.14,5.14,0,0,1,5.14-5Z"/></g><g id="Path_6-2" data-name="Path 6"><path class="cls-3" d="M333.81,82.55A12.62,12.62,0,0,0,321.2,69.94H314a1.8,1.8,0,1,0-.13,3.6h7.33a9,9,0,0,1,9,9h0v7.21a1.8,1.8,0,0,0,3.6.13V82.55Z"/><path class="cls-2" d="M313.92,66.58h7.27a16,16,0,0,1,16,16V90a5.15,5.15,0,0,1-10.3-.28V82.55a5.67,5.67,0,0,0-5.66-5.66h-7.45a5.18,5.18,0,0,1-5-5.33A5.17,5.17,0,0,1,313.92,66.58Z"/></g></g><text class="cls-4" transform="translate(218.92 176.93)"><tspan class="cls-5">Z</tspan><tspan class="cls-6" x="10.98" y="0">de mů</tspan><tspan class="cls-7" x="63.77" y="0">ž</tspan><tspan class="cls-8" x="72.96" y="0">e</tspan><tspan x="82.65" y="0">te udělat</tspan><tspan x="-7.68" y="22.19">This </tspan><tspan class="cls-5" x="33.14" y="22.19">v</tspan><tspan class="cls-6" x="42.72" y="22.19">enue suppo</tspan><tspan class="cls-9" x="141.42" y="22.19">r</tspan><tspan x="149.33" y="22.19">ts</tspan></text><rect class="cls-2" width="595.28" height="209.35"/><g id="noun_covid_3867300-2" data-name="noun covid 3867300"><g id="Path_1-2" data-name="Path 1"><path class="cls-10" d="M165.81,99.72H158a32.08,32.08,0,0,0-5.81-14L161.88,76a5,5,0,0,0-7-7h0l-9.72,9.73a32.08,32.08,0,0,0-14-5.81V65.07a5,5,0,0,0-9.91,0v7.84a32.08,32.08,0,0,0-14,5.81L95,66.52a4.95,4.95,0,0,0-7,7l12.2,12.2a32.08,32.08,0,0,0-5.81,14H86.59a5,5,0,1,0,0,9.91h7.85a32.08,32.08,0,0,0,5.81,14l-9.73,9.72a5,5,0,1,0,7,7l9.73-9.73a32.08,32.08,0,0,0,14,5.81v7.85a5,5,0,0,0,9.91,0h0v-7.85a32.08,32.08,0,0,0,14-5.81l12.2,12.2a5,5,0,1,0,7-7l-12.21-12.2a32.08,32.08,0,0,0,5.81-14h7.85a5,5,0,0,0,0-9.91ZM126.2,127a22.29,22.29,0,1,1,22.28-22.28h0A22.29,22.29,0,0,1,126.2,127Z"/><path class="cls-10" d="M126.19,150.41h0a6.13,6.13,0,0,1-6.12-6.13v-6.85a33.43,33.43,0,0,1-12.7-5.27l-9,9a6.13,6.13,0,0,1-10.45-4.33,6.06,6.06,0,0,1,1.8-4.33l9-9a33.43,33.43,0,0,1-5.27-12.7H86.59a6.13,6.13,0,0,1,0-12.25h6.87a33.26,33.26,0,0,1,5.26-12.7L87.21,74.34a6.1,6.1,0,0,1,0-8.65,6.13,6.13,0,0,1,8.66,0l11.5,11.5a33.26,33.26,0,0,1,12.7-5.26V65.07a6.14,6.14,0,0,1,6.12-6.13h0a6.13,6.13,0,0,1,6.12,6.12v6.87A33.26,33.26,0,0,1,145,77.19l9-9a6.11,6.11,0,0,1,8.65,0,6.11,6.11,0,0,1,0,8.65l-9,9A33.43,33.43,0,0,1,159,98.55h6.86a6.14,6.14,0,0,1,6.12,6.12,6.15,6.15,0,0,1-6.12,6.13H159a33.43,33.43,0,0,1-5.27,12.7L165.18,135a6.13,6.13,0,0,1-4.33,10.45h0a6.05,6.05,0,0,1-4.32-1.8L145,132.16a33.43,33.43,0,0,1-12.7,5.27v6.86a6.13,6.13,0,0,1-6.13,6.12Zm-19.07-21.32.81.59a30.88,30.88,0,0,0,13.49,5.6l1,.15v8.86a3.79,3.79,0,0,0,3.78,3.78h0a3.8,3.8,0,0,0,2.68-1.11,3.75,3.75,0,0,0,1.1-2.67v-8.86l1-.15a30.84,30.84,0,0,0,13.48-5.6l.81-.59L158.18,142a3.78,3.78,0,0,0,5.35-5.35l-12.92-12.91.59-.82a30.79,30.79,0,0,0,5.6-13.48l.15-1h8.86a3.78,3.78,0,0,0,0-7.55H157l-.15-1a30.84,30.84,0,0,0-5.6-13.48l-.59-.81,10.44-10.44a3.78,3.78,0,0,0-5.35-5.35L145.27,80.26l-.82-.59A30.79,30.79,0,0,0,131,74.07l-1-.15V65.07a3.77,3.77,0,0,0-3.77-3.78h0a3.77,3.77,0,0,0-3.77,3.78v8.85l-1,.15a30.84,30.84,0,0,0-13.48,5.6l-.81.59L94.21,67.34a3.78,3.78,0,0,0-5.35,5.35l12.92,12.92-.59.81a31,31,0,0,0-5.6,13.48l-.15,1H86.58a3.78,3.78,0,1,0,0,7.55h8.86l.15,1a30.79,30.79,0,0,0,5.6,13.48l.59.82L91.34,134.18a3.84,3.84,0,0,0-1.11,2.68,3.79,3.79,0,0,0,6.46,2.67Zm19.08-1a23.46,23.46,0,1,1,23.45-23.45A23.48,23.48,0,0,1,126.2,128.13Zm0-44.56a21.11,21.11,0,1,0,21.1,21.11A21.13,21.13,0,0,0,126.2,83.57Z"/></g><g id="Path_2-2" data-name="Path 2"><path class="cls-10" d="M126.2,99.72a5,5,0,0,0,0-9.9h0a14.88,14.88,0,0,0-14.86,14.86,5,5,0,1,0,9.9,0h0A5,5,0,0,1,126.2,99.72Z"/></g><g id="Path_3-2" data-name="Path 3"><path class="cls-10" d="M136.1,99.72a5,5,0,0,0-4.95,5h0a5,5,0,0,1-5,4.95,5,5,0,1,0,0,9.9h0a14.88,14.88,0,0,0,14.85-14.85A5,5,0,0,0,136.1,99.72Z"/></g></g><g id="noun_Scanner_3885540-2" data-name="noun Scanner 3885540"><g id="Path_4-3" data-name="Path 4"><path class="cls-11" d="M67.39,66.45A20.59,20.59,0,0,1,88,45.87H99.73a2.94,2.94,0,0,1,0,5.88H88a14.7,14.7,0,0,0-14.7,14.69h0V78.21a2.94,2.94,0,0,1-5.88,0Z"/><path class="cls-10" d="M70.34,86.52H70a8.42,8.42,0,0,1-8.11-8.11v-12A26.08,26.08,0,0,1,88,40.4h12A8.39,8.39,0,0,1,108,49.1a8.42,8.42,0,0,1-8.11,8.11H88a9.22,9.22,0,0,0-9.23,9.23v12a8.39,8.39,0,0,1-8.39,8.12Z"/></g><g id="Path_6-3" data-name="Path 6"><path class="cls-11" d="M67.39,142.9A20.59,20.59,0,0,0,88,163.48H99.73a2.94,2.94,0,0,0,.21-5.88H88a14.68,14.68,0,0,1-14.7-14.69h0V131.14a2.94,2.94,0,0,0-5.88-.21v12Z"/><path class="cls-10" d="M99.84,169H88a26.08,26.08,0,0,1-26-26V131.21c0-.16,0-.31,0-.46a8.32,8.32,0,0,1,2.66-5.86,8.41,8.41,0,0,1,14.15,6.32V142.9A9.24,9.24,0,0,0,88,152.14h12.15a8.42,8.42,0,0,1,8.12,8.69A8.42,8.42,0,0,1,99.84,169Z"/></g><g id="Path_4-4" data-name="Path 4"><path class="cls-11" d="M185,142.9a20.58,20.58,0,0,1-20.58,20.58H152.66a2.94,2.94,0,0,1,0-5.87h11.76a14.7,14.7,0,0,0,14.7-14.7h0V131.14a2.94,2.94,0,0,1,5.88,0Z"/><path class="cls-10" d="M182.05,122.83h.3a8.42,8.42,0,0,1,8.11,8.11v12a26.08,26.08,0,0,1-26.05,26H152.47a8.41,8.41,0,0,1,0-16.81h11.95a9.22,9.22,0,0,0,9.23-9.23V131a8.39,8.39,0,0,1,8.39-8.12Z"/></g><g id="Path_6-4" data-name="Path 6"><path class="cls-11" d="M185,66.46a20.59,20.59,0,0,0-20.58-20.59H152.66a2.94,2.94,0,0,0-.21,5.88h12a14.7,14.7,0,0,1,14.7,14.7h0V78.22a2.94,2.94,0,1,0,5.88.2v-12Z"/><path class="cls-10" d="M152.55,40.4h11.87a26.08,26.08,0,0,1,26.05,26.05V78.15c0,.15,0,.3,0,.45a8.41,8.41,0,0,1-16.81-.45V66.46a9.22,9.22,0,0,0-9.23-9.24H152.27a8.4,8.4,0,0,1-8.12-8.69A8.43,8.43,0,0,1,152.55,40.4Z"/></g></g><text class="cls-12" transform="translate(228.55 132.29)"><tspan class="cls-13">Č</tspan><tspan x="66.43" y="0">ekin</tspan></text><text class="cls-14" transform="translate(233.92 166.19)">Ch<tspan class="cls-15" x="27.84" y="0">r</tspan><tspan x="36.24" y="0">aňte sebe, ch</tspan><tspan class="cls-15" x="169.3" y="0">r</tspan><tspan x="177.7" y="0">aňte o</tspan><tspan class="cls-16" x="240.99" y="0">s</tspan><tspan x="251.58" y="0">tatní</tspan></text><rect class="cls-17" y="209.35" width="595.28" height="67.68"/><line class="cls-18" x1="48.02" y1="225.22" x2="48.37" y2="261.17"/><text class="cls-19" transform="translate(72.31 237.86)">Nas<tspan class="cls-20" x="26.35" y="0">k</tspan><tspan class="cls-21" x="34.22" y="0">enujte QR </tspan><tspan class="cls-20" x="106.57" y="0">k</tspan><tspan x="114.44" y="0">ód apli</tspan><tspan class="cls-22" x="160.48" y="0">k</tspan><tspan x="168.42" y="0">ací a p</tspan><tspan class="cls-23" x="212.51" y="0">r</tspan><tspan class="cls-24" x="218.06" y="0">ov</tspan><tspan x="234.2" y="0">eďte čekin</tspan></text><text class="cls-19" transform="translate(72.31 257.11)">Scan the QR code with the app to <tspan class="cls-25" x="235.09" y="0">[</tspan><tspan class="cls-21" x="240.26" y="0">chec</tspan><tspan class="cls-26" x="271.37" y="0">k</tspan><tspan x="279.03" y="0">-in]</tspan></text></svg>